<mxfile host="65bd71144e">
    <diagram id="cdXlsrbBIGBtHj_2QQfm" name="Page-1">
        <mxGraphModel dx="895" dy="656" grid="1" gridSize="10" guides="1" tooltips="1" connect="1" arrows="1" fold="1" page="1" pageScale="1" pageWidth="827" pageHeight="1169" math="0" shadow="0">
            <root>
                <mxCell id="0"/>
                <mxCell id="1" parent="0"/>
                <mxCell id="2" value="&lt;p style=&quot;margin:0px;margin-top:4px;text-align:center;&quot;&gt;&amp;lt;&amp;lt;actor&amp;gt;&amp;gt;&lt;br&gt;&lt;b&gt;Client&lt;/b&gt;&lt;/p&gt;" style="shape=rect;html=1;overflow=fill;html=1;whiteSpace=wrap;align=center;" parent="1" vertex="1">
                    <mxGeometry x="50" y="330" width="110" height="160" as="geometry"/>
                </mxCell>
                <mxCell id="3" value="Gestion des utilisateurs" style="shape=rect;html=1;verticalAlign=top;fontStyle=1;whiteSpace=wrap;align=center;" parent="1" vertex="1">
                    <mxGeometry x="250" y="210" width="520" height="410" as="geometry"/>
                </mxCell>
                <mxCell id="4" value="Consulter la liste des utilisateurs rattaché" style="ellipse;whiteSpace=wrap;html=1;" parent="1" vertex="1">
                    <mxGeometry x="315" y="257.5" width="140" height="70" as="geometry"/>
                </mxCell>
                <mxCell id="5" value="Consulter les détails d'un utilisateur rataché" style="ellipse;whiteSpace=wrap;html=1;" parent="1" vertex="1">
                    <mxGeometry x="315" y="347.5" width="140" height="70" as="geometry"/>
                </mxCell>
                <mxCell id="6" value="Client" style="shape=umlActor;verticalLabelPosition=bottom;verticalAlign=top;html=1;" parent="1" vertex="1">
                    <mxGeometry x="90" y="390" width="30" height="60" as="geometry"/>
                </mxCell>
                <mxCell id="7" value="" style="endArrow=none;startArrow=none;endFill=0;startFill=0;endSize=8;html=1;verticalAlign=bottom;labelBackgroundColor=none;strokeWidth=3;exitX=1;exitY=0.5;exitDx=0;exitDy=0;" parent="1" source="2" edge="1">
                    <mxGeometry width="160" relative="1" as="geometry">
                        <mxPoint x="155" y="288.5" as="sourcePoint"/>
                        <mxPoint x="315" y="288.5" as="targetPoint"/>
                    </mxGeometry>
                </mxCell>
                <mxCell id="8" value="" style="endArrow=none;startArrow=none;endFill=0;startFill=0;endSize=8;html=1;verticalAlign=bottom;labelBackgroundColor=none;strokeWidth=3;exitX=1.018;exitY=0.6;exitDx=0;exitDy=0;entryX=0;entryY=0.5;entryDx=0;entryDy=0;exitPerimeter=0;" parent="1" source="2" target="5" edge="1">
                    <mxGeometry width="160" relative="1" as="geometry">
                        <mxPoint x="160" y="347.5" as="sourcePoint"/>
                        <mxPoint x="315" y="308.5" as="targetPoint"/>
                    </mxGeometry>
                </mxCell>
                <mxCell id="9" value="Ratacher un nouvel utilisateur" style="ellipse;whiteSpace=wrap;html=1;" parent="1" vertex="1">
                    <mxGeometry x="315" y="430" width="140" height="70" as="geometry"/>
                </mxCell>
                <mxCell id="10" value="" style="endArrow=none;startArrow=none;endFill=0;startFill=0;endSize=8;html=1;verticalAlign=bottom;labelBackgroundColor=none;strokeWidth=3;exitX=1;exitY=0.697;exitDx=0;exitDy=0;entryX=0;entryY=0.5;entryDx=0;entryDy=0;exitPerimeter=0;" parent="1" source="2" target="9" edge="1">
                    <mxGeometry width="160" relative="1" as="geometry">
                        <mxPoint x="160" y="430" as="sourcePoint"/>
                        <mxPoint x="315" y="391" as="targetPoint"/>
                    </mxGeometry>
                </mxCell>
                <mxCell id="11" value="Supprimer un utilisateur rataché" style="ellipse;whiteSpace=wrap;html=1;" parent="1" vertex="1">
                    <mxGeometry x="315" y="514.98" width="140" height="70" as="geometry"/>
                </mxCell>
                <mxCell id="12" value="" style="endArrow=none;startArrow=none;endFill=0;startFill=0;endSize=8;html=1;verticalAlign=bottom;labelBackgroundColor=none;strokeWidth=3;exitX=1;exitY=0.853;exitDx=0;exitDy=0;entryX=0;entryY=0.5;entryDx=0;entryDy=0;exitPerimeter=0;" parent="1" source="2" target="11" edge="1">
                    <mxGeometry width="160" relative="1" as="geometry">
                        <mxPoint x="160" y="444" as="sourcePoint"/>
                        <mxPoint x="315" y="475.98" as="targetPoint"/>
                    </mxGeometry>
                </mxCell>
                <mxCell id="13" value="Authentification" style="ellipse;whiteSpace=wrap;html=1;" vertex="1" parent="1">
                    <mxGeometry x="565" y="383.08" width="140" height="70" as="geometry"/>
                </mxCell>
                <mxCell id="14" value="&amp;lt;&amp;lt;include&amp;gt;&amp;gt;" style="html=1;verticalAlign=bottom;labelBackgroundColor=none;endArrow=open;endFill=0;dashed=1;exitX=1;exitY=0.414;exitDx=0;exitDy=0;entryX=0;entryY=0.5;entryDx=0;entryDy=0;exitPerimeter=0;" edge="1" parent="1" target="13" source="4">
                    <mxGeometry width="160" relative="1" as="geometry">
                        <mxPoint x="489.99999999999955" y="373.08" as="sourcePoint"/>
                        <mxPoint x="515" y="320.58" as="targetPoint"/>
                    </mxGeometry>
                </mxCell>
                <mxCell id="15" value="&amp;lt;&amp;lt;include&amp;gt;&amp;gt;" style="html=1;verticalAlign=bottom;labelBackgroundColor=none;endArrow=open;endFill=0;dashed=1;exitX=1;exitY=0.5;exitDx=0;exitDy=0;entryX=0;entryY=0.5;entryDx=0;entryDy=0;" edge="1" parent="1" target="13" source="5">
                    <mxGeometry width="160" relative="1" as="geometry">
                        <mxPoint x="491.26" y="456.9199999999999" as="sourcePoint"/>
                        <mxPoint x="575.0000000000005" y="498.08" as="targetPoint"/>
                    </mxGeometry>
                </mxCell>
                <mxCell id="16" value="&amp;lt;&amp;lt;include&amp;gt;&amp;gt;" style="html=1;verticalAlign=bottom;labelBackgroundColor=none;endArrow=open;endFill=0;dashed=1;exitX=1;exitY=0.5;exitDx=0;exitDy=0;entryX=0;entryY=0.5;entryDx=0;entryDy=0;" edge="1" parent="1" source="9" target="13">
                    <mxGeometry width="160" relative="1" as="geometry">
                        <mxPoint x="465" y="392.5" as="sourcePoint"/>
                        <mxPoint x="575" y="428.0799999999999" as="targetPoint"/>
                    </mxGeometry>
                </mxCell>
                <mxCell id="17" value="&amp;lt;&amp;lt;include&amp;gt;&amp;gt;" style="html=1;verticalAlign=bottom;labelBackgroundColor=none;endArrow=open;endFill=0;dashed=1;exitX=0.982;exitY=0.379;exitDx=0;exitDy=0;exitPerimeter=0;" edge="1" parent="1" source="11">
                    <mxGeometry width="160" relative="1" as="geometry">
                        <mxPoint x="480" y="536.92" as="sourcePoint"/>
                        <mxPoint x="560" y="420" as="targetPoint"/>
                    </mxGeometry>
                </mxCell>
            </root>
        </mxGraphModel>
    </diagram>
</mxfile>